<mxfile host="app.diagrams.net" agent="Mozilla/5.0 (Windows NT 10.0; Win64; x64) AppleWebKit/537.36 (KHTML, like Gecko) Chrome/131.0.0.0 Safari/537.36" version="26.0.3">
  <diagram name="Página-1" id="g48vw8_679xczezThD_M">
    <mxGraphModel grid="1" page="1" gridSize="10" guides="1" tooltips="1" connect="1" arrows="1" fold="1" pageScale="1" pageWidth="827" pageHeight="1169" math="0" shadow="0">
      <root>
        <mxCell id="0" />
        <mxCell id="1" parent="0" />
        <mxCell id="IezbVIf9sLU3DiRnsiNb-1" value="Usuari" style="shape=umlActor;verticalLabelPosition=bottom;verticalAlign=top;html=1;outlineConnect=0;" vertex="1" parent="1">
          <mxGeometry x="140" y="580" width="30" height="60" as="geometry" />
        </mxCell>
        <mxCell id="IezbVIf9sLU3DiRnsiNb-2" value="" style="endArrow=none;html=1;rounded=0;" edge="1" parent="1" source="IezbVIf9sLU3DiRnsiNb-4">
          <mxGeometry width="50" height="50" relative="1" as="geometry">
            <mxPoint x="160" y="910" as="sourcePoint" />
            <mxPoint x="160" y="680" as="targetPoint" />
          </mxGeometry>
        </mxCell>
        <mxCell id="IezbVIf9sLU3DiRnsiNb-3" value="" style="endArrow=none;html=1;rounded=0;" edge="1" parent="1" target="IezbVIf9sLU3DiRnsiNb-4">
          <mxGeometry width="50" height="50" relative="1" as="geometry">
            <mxPoint x="160" y="800" as="sourcePoint" />
            <mxPoint x="160" y="680" as="targetPoint" />
          </mxGeometry>
        </mxCell>
        <mxCell id="IezbVIf9sLU3DiRnsiNb-4" value="" style="html=1;points=[[0,0,0,0,5],[0,1,0,0,-5],[1,0,0,0,5],[1,1,0,0,-5]];perimeter=orthogonalPerimeter;outlineConnect=0;targetShapes=umlLifeline;portConstraint=eastwest;newEdgeStyle={&quot;curved&quot;:0,&quot;rounded&quot;:0};" vertex="1" parent="1">
          <mxGeometry x="155" y="700" width="10" height="80" as="geometry" />
        </mxCell>
        <mxCell id="IezbVIf9sLU3DiRnsiNb-5" value="Cortana" style="shape=umlActor;verticalLabelPosition=bottom;verticalAlign=top;html=1;outlineConnect=0;" vertex="1" parent="1">
          <mxGeometry x="414" y="580" width="30" height="60" as="geometry" />
        </mxCell>
        <mxCell id="IezbVIf9sLU3DiRnsiNb-6" value="" style="endArrow=none;html=1;rounded=0;" edge="1" parent="1" source="IezbVIf9sLU3DiRnsiNb-8">
          <mxGeometry width="50" height="50" relative="1" as="geometry">
            <mxPoint x="434" y="910" as="sourcePoint" />
            <mxPoint x="434" y="680" as="targetPoint" />
          </mxGeometry>
        </mxCell>
        <mxCell id="IezbVIf9sLU3DiRnsiNb-7" value="" style="endArrow=none;html=1;rounded=0;" edge="1" parent="1" target="IezbVIf9sLU3DiRnsiNb-8">
          <mxGeometry width="50" height="50" relative="1" as="geometry">
            <mxPoint x="434" y="800" as="sourcePoint" />
            <mxPoint x="434" y="680" as="targetPoint" />
          </mxGeometry>
        </mxCell>
        <mxCell id="IezbVIf9sLU3DiRnsiNb-8" value="" style="html=1;points=[[0,0,0,0,5],[0,1,0,0,-5],[1,0,0,0,5],[1,1,0,0,-5]];perimeter=orthogonalPerimeter;outlineConnect=0;targetShapes=umlLifeline;portConstraint=eastwest;newEdgeStyle={&quot;curved&quot;:0,&quot;rounded&quot;:0};" vertex="1" parent="1">
          <mxGeometry x="429" y="700" width="10" height="80" as="geometry" />
        </mxCell>
        <mxCell id="IezbVIf9sLU3DiRnsiNb-9" style="edgeStyle=orthogonalEdgeStyle;rounded=0;orthogonalLoop=1;jettySize=auto;html=1;curved=0;exitX=1;exitY=0;exitDx=0;exitDy=5;exitPerimeter=0;entryX=0;entryY=0;entryDx=0;entryDy=5;entryPerimeter=0;" edge="1" parent="1" source="IezbVIf9sLU3DiRnsiNb-4" target="IezbVIf9sLU3DiRnsiNb-8">
          <mxGeometry relative="1" as="geometry" />
        </mxCell>
        <mxCell id="IezbVIf9sLU3DiRnsiNb-11" value="ComandaVeu(&quot;Cortana, calibrar HoloLens&quot;)" style="edgeLabel;html=1;align=center;verticalAlign=middle;resizable=0;points=[];" connectable="0" vertex="1" parent="IezbVIf9sLU3DiRnsiNb-9">
          <mxGeometry x="-0.1742" y="2" relative="1" as="geometry">
            <mxPoint x="14" y="-8" as="offset" />
          </mxGeometry>
        </mxCell>
        <mxCell id="IezbVIf9sLU3DiRnsiNb-10" value="" style="html=1;verticalAlign=bottom;endArrow=open;dashed=1;endSize=8;curved=0;rounded=0;entryX=1;entryY=1;entryDx=0;entryDy=-5;entryPerimeter=0;exitX=0;exitY=1;exitDx=0;exitDy=-5;exitPerimeter=0;" edge="1" parent="1" source="IezbVIf9sLU3DiRnsiNb-8" target="IezbVIf9sLU3DiRnsiNb-4">
          <mxGeometry relative="1" as="geometry">
            <mxPoint x="429" y="739" as="sourcePoint" />
            <mxPoint x="349" y="739" as="targetPoint" />
          </mxGeometry>
        </mxCell>
        <mxCell id="IezbVIf9sLU3DiRnsiNb-17" value=":Sistema" style="shape=umlLifeline;perimeter=lifelinePerimeter;whiteSpace=wrap;html=1;container=1;dropTarget=0;collapsible=0;recursiveResize=0;outlineConnect=0;portConstraint=eastwest;newEdgeStyle={&quot;curved&quot;:0,&quot;rounded&quot;:0};" vertex="1" parent="1">
          <mxGeometry x="660" y="632" width="100" height="168" as="geometry" />
        </mxCell>
        <mxCell id="IezbVIf9sLU3DiRnsiNb-18" value="" style="html=1;points=[[0,0,0,0,5],[0,1,0,0,-5],[1,0,0,0,5],[1,1,0,0,-5]];perimeter=orthogonalPerimeter;outlineConnect=0;targetShapes=umlLifeline;portConstraint=eastwest;newEdgeStyle={&quot;curved&quot;:0,&quot;rounded&quot;:0};" vertex="1" parent="IezbVIf9sLU3DiRnsiNb-17">
          <mxGeometry x="45" y="80" width="10" height="50" as="geometry" />
        </mxCell>
        <mxCell id="IezbVIf9sLU3DiRnsiNb-19" style="rounded=0;orthogonalLoop=1;jettySize=auto;html=1;entryX=0.1;entryY=0.175;entryDx=0;entryDy=0;entryPerimeter=0;" edge="1" parent="1">
          <mxGeometry relative="1" as="geometry">
            <mxPoint x="440" y="715" as="sourcePoint" />
            <mxPoint x="706" y="715" as="targetPoint" />
          </mxGeometry>
        </mxCell>
        <mxCell id="IezbVIf9sLU3DiRnsiNb-20" value="Ini_Calibratge(correuAi, correuCF, adreça, idHl)" style="edgeLabel;html=1;align=center;verticalAlign=middle;resizable=0;points=[];" connectable="0" vertex="1" parent="IezbVIf9sLU3DiRnsiNb-19">
          <mxGeometry x="-0.1742" y="2" relative="1" as="geometry">
            <mxPoint x="14" y="-8" as="offset" />
          </mxGeometry>
        </mxCell>
        <mxCell id="IezbVIf9sLU3DiRnsiNb-22" value="" style="html=1;verticalAlign=bottom;endArrow=open;dashed=1;endSize=8;curved=0;rounded=0;entryX=1;entryY=1;entryDx=0;entryDy=-5;entryPerimeter=0;exitX=0;exitY=1;exitDx=0;exitDy=-5;exitPerimeter=0;" edge="1" parent="1">
          <mxGeometry relative="1" as="geometry">
            <mxPoint x="703" y="740" as="sourcePoint" />
            <mxPoint x="439" y="740" as="targetPoint" />
          </mxGeometry>
        </mxCell>
      </root>
    </mxGraphModel>
  </diagram>
</mxfile>
